<svg xmlns="http://www.w3.org/2000/svg" width="1000" height="500">
<rect width="100%" height="100%" fill="#fcfbf7"/>
<text x="500.0" y="38" font-size="24" text-anchor="middle" font-weight="bold">Fraudes par type de transaction</text>
<line x1="90" y1="400" x2="970" y2="400" stroke="#444" stroke-width="2"/>
<line x1="90" y1="70" x2="90" y2="400" stroke="#444" stroke-width="2"/>
<rect x="760" y="22" width="18" height="18" fill="#5b8c5a" rx="4" />
<text x="784" y="36" font-size="13">Normal</text>
<rect x="880" y="22" width="18" height="18" fill="#c8553d" rx="4" />
<text x="904" y="36" font-size="13">Fraude</text>
<rect x="90" y="193.41" width="28" height="206.59" fill="#5b8c5a" rx="5" /><rect x="130" y="400.00" width="28" height="0.00" fill="#c8553d" rx="5" /><text x="135.0" y="460" font-size="12" text-anchor="middle">CASH_IN</text><text x="104.0" y="183.41" font-size="11" text-anchor="middle">261300.0%</text><text x="144.0" y="390.00" font-size="11" text-anchor="middle">0.0%</text><rect x="204" y="70.00" width="28" height="330.00" fill="#5b8c5a" rx="5" /><rect x="244" y="74.59" width="28" height="325.41" fill="#c8553d" rx="5" /><text x="249.0" y="460" font-size="12" text-anchor="middle">CASH_OUT</text><text x="218.0" y="60.00" font-size="11" text-anchor="middle">417400.0%</text><text x="258.0" y="64.59" font-size="11" text-anchor="middle">411600.0%</text><rect x="318" y="394.15" width="28" height="5.85" fill="#5b8c5a" rx="5" /><rect x="358" y="400.00" width="28" height="0.00" fill="#c8553d" rx="5" /><text x="363.0" y="460" font-size="12" text-anchor="middle">DEBIT</text><text x="332.0" y="384.15" font-size="11" text-anchor="middle">7400.0%</text><text x="372.0" y="390.00" font-size="11" text-anchor="middle">0.0%</text><rect x="432" y="85.57" width="28" height="314.43" fill="#5b8c5a" rx="5" /><rect x="472" y="400.00" width="28" height="0.00" fill="#c8553d" rx="5" /><text x="477.0" y="460" font-size="12" text-anchor="middle">PAYMENT</text><text x="446.0" y="75.57" font-size="11" text-anchor="middle">397700.0%</text><text x="486.0" y="390.00" font-size="11" text-anchor="middle">0.0%</text><rect x="546" y="324.97" width="28" height="75.03" fill="#5b8c5a" rx="5" /><rect x="586" y="76.09" width="28" height="323.91" fill="#c8553d" rx="5" /><text x="591.0" y="460" font-size="12" text-anchor="middle">TRANSFER</text><text x="560.0" y="314.97" font-size="11" text-anchor="middle">94900.0%</text><text x="600.0" y="66.09" font-size="11" text-anchor="middle">409700.0%</text>
</svg>
