<svg xmlns="http://www.w3.org/2000/svg" width="1000" height="500">
<rect width="100%" height="100%" fill="#fcfbf7"/>
<text x="500.0" y="38" font-size="24" text-anchor="middle" font-weight="bold">Comparaison des signaux entre normal et fraude</text>
<line x1="90" y1="400" x2="970" y2="400" stroke="#444" stroke-width="2"/>
<line x1="90" y1="70" x2="90" y2="400" stroke="#444" stroke-width="2"/>
<rect x="760" y="22" width="18" height="18" fill="#5b8c5a" rx="4" />
<text x="784" y="36" font-size="13">Normal</text>
<rect x="880" y="22" width="18" height="18" fill="#c8553d" rx="4" />
<text x="904" y="36" font-size="13">Fraude</text>
<rect x="90" y="319.48" width="28" height="80.52" fill="#5b8c5a" rx="5" /><rect x="130" y="70.00" width="28" height="330.00" fill="#c8553d" rx="5" /><text x="135.0" y="460" font-size="12" text-anchor="middle">Orig videe</text><text x="104.0" y="309.48" font-size="11" text-anchor="middle">23.8%</text><text x="144.0" y="60.00" font-size="11" text-anchor="middle">97.6%</text><rect x="204" y="256.32" width="28" height="143.68" fill="#5b8c5a" rx="5" /><rect x="244" y="179.60" width="28" height="220.40" fill="#c8553d" rx="5" /><text x="249.0" y="460" font-size="12" text-anchor="middle">Dest solde 0</text><text x="218.0" y="246.32" font-size="11" text-anchor="middle">42.5%</text><text x="258.0" y="169.60" font-size="11" text-anchor="middle">65.2%</text><rect x="318" y="276.86" width="28" height="123.14" fill="#5b8c5a" rx="5" /><rect x="358" y="232.12" width="28" height="167.88" fill="#c8553d" rx="5" /><text x="363.0" y="460" font-size="12" text-anchor="middle">Dest intacte</text><text x="332.0" y="266.86" font-size="11" text-anchor="middle">36.4%</text><text x="372.0" y="222.12" font-size="11" text-anchor="middle">49.6%</text><rect x="432" y="288.08" width="28" height="111.92" fill="#5b8c5a" rx="5" /><rect x="472" y="398.31" width="28" height="1.69" fill="#c8553d" rx="5" /><text x="477.0" y="460" font-size="12" text-anchor="middle">Orig solde 0</text><text x="446.0" y="278.08" font-size="11" text-anchor="middle">33.1%</text><text x="486.0" y="388.31" font-size="11" text-anchor="middle">0.5%</text><rect x="546" y="166.90" width="28" height="233.10" fill="#5b8c5a" rx="5" /><rect x="586" y="197.97" width="28" height="202.03" fill="#c8553d" rx="5" /><text x="591.0" y="460" font-size="12" text-anchor="middle">Erreur dest</text><text x="560.0" y="156.90" font-size="11" text-anchor="middle">68.9%</text><text x="600.0" y="187.97" font-size="11" text-anchor="middle">59.7%</text><rect x="660" y="127.14" width="28" height="272.86" fill="#5b8c5a" rx="5" /><rect x="700" y="397.69" width="28" height="2.31" fill="#c8553d" rx="5" /><text x="705.0" y="460" font-size="12" text-anchor="middle">Erreur orig</text><text x="674.0" y="117.14" font-size="11" text-anchor="middle">80.7%</text><text x="714.0" y="387.69" font-size="11" text-anchor="middle">0.7%</text><rect x="774" y="400.00" width="28" height="0.00" fill="#5b8c5a" rx="5" /><rect x="814" y="399.34" width="28" height="0.66" fill="#c8553d" rx="5" /><text x="819.0" y="460" font-size="12" text-anchor="middle">Flag systeme</text><text x="788.0" y="390.00" font-size="11" text-anchor="middle">0.0%</text><text x="828.0" y="389.34" font-size="11" text-anchor="middle">0.2%</text>
</svg>
