<svg xmlns="http://www.w3.org/2000/svg" width="1000" height="500">
<rect width="100%" height="100%" fill="#fcfbf7"/>
<text x="500.0" y="38" font-size="24" text-anchor="middle" font-weight="bold">Fraude par type de transaction</text>
<line x1="90" y1="410" x2="970" y2="410" stroke="#444" stroke-width="2"/>
<line x1="90" y1="70" x2="90" y2="410" stroke="#444" stroke-width="2"/>
<rect x="790" y="22" width="18" height="18" fill="#5b8c5a" rx="4" />
<text x="814" y="36" font-size="13">Normal</text>
<rect x="880" y="22" width="18" height="18" fill="#c8553d" rx="4" />
<text x="904" y="36" font-size="13">Fraude</text>
<rect x="90" y="200.04" width="40" height="209.96" fill="#5b8c5a" rx="5" /><rect x="148" y="410.00" width="40" height="0.00" fill="#c8553d" rx="5" /><text x="160.0" y="465" font-size="13" text-anchor="middle">CASH_IN</text><text x="110.0" y="190.04" font-size="11" text-anchor="middle">9 134</text><text x="168.0" y="400.00" font-size="11" text-anchor="middle">0</text><rect x="260" y="70.00" width="40" height="340.00" fill="#5b8c5a" rx="5" /><rect x="318" y="315.39" width="40" height="94.61" fill="#c8553d" rx="5" /><text x="330.0" y="465" font-size="13" text-anchor="middle">CASH_OUT</text><text x="280.0" y="60.00" font-size="11" text-anchor="middle">14 791</text><text x="338.0" y="305.39" font-size="11" text-anchor="middle">4 116</text><rect x="430" y="403.77" width="40" height="6.23" fill="#5b8c5a" rx="5" /><rect x="488" y="410.00" width="40" height="0.00" fill="#c8553d" rx="5" /><text x="500.0" y="465" font-size="13" text-anchor="middle">DEBIT</text><text x="450.0" y="393.77" font-size="11" text-anchor="middle">271</text><text x="508.0" y="400.00" font-size="11" text-anchor="middle">0</text><rect x="600" y="85.84" width="40" height="324.16" fill="#5b8c5a" rx="5" /><rect x="658" y="410.00" width="40" height="0.00" fill="#c8553d" rx="5" /><text x="670.0" y="465" font-size="13" text-anchor="middle">PAYMENT</text><text x="620.0" y="75.84" font-size="11" text-anchor="middle">14 102</text><text x="678.0" y="400.00" font-size="11" text-anchor="middle">0</text><rect x="770" y="329.80" width="40" height="80.20" fill="#5b8c5a" rx="5" /><rect x="828" y="315.82" width="40" height="94.18" fill="#c8553d" rx="5" /><text x="840.0" y="465" font-size="13" text-anchor="middle">TRANSFER</text><text x="790.0" y="319.80" font-size="11" text-anchor="middle">3 489</text><text x="848.0" y="305.82" font-size="11" text-anchor="middle">4 097</text>
</svg>
