<svg xmlns="http://www.w3.org/2000/svg" width="900" height="420">
<rect width="100%" height="100%" fill="#fcfbf7"/>
<text x="450.0" y="38" font-size="24" text-anchor="middle" font-weight="bold">Taux de fraude par periode de 24 steps</text>
<line x1="100" y1="350" x2="870" y2="350" stroke="#444" stroke-width="2"/>
<line x1="100" y1="70" x2="100" y2="350" stroke="#444" stroke-width="2"/>
<rect x="100" y="349.87" width="60" height="0.13" fill="#d08c60" rx="6" /><rect x="200" y="349.81" width="60" height="0.19" fill="#d08c60" rx="6" /><rect x="300" y="268.88" width="60" height="81.12" fill="#d08c60" rx="6" /><rect x="400" y="347.40" width="60" height="2.60" fill="#d08c60" rx="6" /><rect x="500" y="342.79" width="60" height="7.21" fill="#d08c60" rx="6" /><rect x="600" y="349.86" width="60" height="0.14" fill="#d08c60" rx="6" /><rect x="700" y="349.82" width="60" height="0.18" fill="#d08c60" rx="6" /><rect x="800" y="349.83" width="60" height="0.17" fill="#d08c60" rx="6" /><rect x="900" y="349.83" width="60" height="0.17" fill="#d08c60" rx="6" /><rect x="1000" y="349.80" width="60" height="0.20" fill="#d08c60" rx="6" /><rect x="1100" y="349.82" width="60" height="0.18" fill="#d08c60" rx="6" /><rect x="1200" y="349.76" width="60" height="0.24" fill="#d08c60" rx="6" /><rect x="1300" y="349.84" width="60" height="0.16" fill="#d08c60" rx="6" /><rect x="1400" y="349.83" width="60" height="0.17" fill="#d08c60" rx="6" /><rect x="1500" y="349.83" width="60" height="0.17" fill="#d08c60" rx="6" /><rect x="1600" y="349.81" width="60" height="0.19" fill="#d08c60" rx="6" /><rect x="1700" y="349.79" width="60" height="0.21" fill="#d08c60" rx="6" /><rect x="1800" y="346.43" width="60" height="3.57" fill="#d08c60" rx="6" /><rect x="1900" y="343.66" width="60" height="6.34" fill="#d08c60" rx="6" /><rect x="2000" y="346.65" width="60" height="3.35" fill="#d08c60" rx="6" /><rect x="2100" y="346.90" width="60" height="3.10" fill="#d08c60" rx="6" /><rect x="2200" y="348.66" width="60" height="1.34" fill="#d08c60" rx="6" /><rect x="2300" y="348.81" width="60" height="1.19" fill="#d08c60" rx="6" /><rect x="2400" y="347.60" width="60" height="2.40" fill="#d08c60" rx="6" /><rect x="2500" y="348.84" width="60" height="1.16" fill="#d08c60" rx="6" /><rect x="2600" y="344.51" width="60" height="5.49" fill="#d08c60" rx="6" /><rect x="2700" y="340.86" width="60" height="9.14" fill="#d08c60" rx="6" /><rect x="2800" y="345.26" width="60" height="4.74" fill="#d08c60" rx="6" /><rect x="2900" y="348.67" width="60" height="1.33" fill="#d08c60" rx="6" /><rect x="3000" y="343.35" width="60" height="6.65" fill="#d08c60" rx="6" /><rect x="3100" y="70.00" width="60" height="280.00" fill="#d08c60" rx="6" />
<text x="130.00" y="390" font-size="15" text-anchor="middle">P1</text><text x="230.00" y="390" font-size="15" text-anchor="middle">P2</text><text x="330.00" y="390" font-size="15" text-anchor="middle">P3</text><text x="430.00" y="390" font-size="15" text-anchor="middle">P4</text><text x="530.00" y="390" font-size="15" text-anchor="middle">P5</text><text x="630.00" y="390" font-size="15" text-anchor="middle">P6</text><text x="730.00" y="390" font-size="15" text-anchor="middle">P7</text><text x="830.00" y="390" font-size="15" text-anchor="middle">P8</text><text x="930.00" y="390" font-size="15" text-anchor="middle">P9</text><text x="1030.00" y="390" font-size="15" text-anchor="middle">P10</text><text x="1130.00" y="390" font-size="15" text-anchor="middle">P11</text><text x="1230.00" y="390" font-size="15" text-anchor="middle">P12</text><text x="1330.00" y="390" font-size="15" text-anchor="middle">P13</text><text x="1430.00" y="390" font-size="15" text-anchor="middle">P14</text><text x="1530.00" y="390" font-size="15" text-anchor="middle">P15</text><text x="1630.00" y="390" font-size="15" text-anchor="middle">P16</text><text x="1730.00" y="390" font-size="15" text-anchor="middle">P17</text><text x="1830.00" y="390" font-size="15" text-anchor="middle">P18</text><text x="1930.00" y="390" font-size="15" text-anchor="middle">P19</text><text x="2030.00" y="390" font-size="15" text-anchor="middle">P20</text><text x="2130.00" y="390" font-size="15" text-anchor="middle">P21</text><text x="2230.00" y="390" font-size="15" text-anchor="middle">P22</text><text x="2330.00" y="390" font-size="15" text-anchor="middle">P23</text><text x="2430.00" y="390" font-size="15" text-anchor="middle">P24</text><text x="2530.00" y="390" font-size="15" text-anchor="middle">P25</text><text x="2630.00" y="390" font-size="15" text-anchor="middle">P26</text><text x="2730.00" y="390" font-size="15" text-anchor="middle">P27</text><text x="2830.00" y="390" font-size="15" text-anchor="middle">P28</text><text x="2930.00" y="390" font-size="15" text-anchor="middle">P29</text><text x="3030.00" y="390" font-size="15" text-anchor="middle">P30</text><text x="3130.00" y="390" font-size="15" text-anchor="middle">P31</text>
<text x="130.00" y="339.87" font-size="14" text-anchor="middle">0.05%</text><text x="230.00" y="339.81" font-size="14" text-anchor="middle">0.07%</text><text x="330.00" y="258.88" font-size="14" text-anchor="middle">28.97%</text><text x="430.00" y="337.40" font-size="14" text-anchor="middle">0.93%</text><text x="530.00" y="332.79" font-size="14" text-anchor="middle">2.57%</text><text x="630.00" y="339.86" font-size="14" text-anchor="middle">0.05%</text><text x="730.00" y="339.82" font-size="14" text-anchor="middle">0.06%</text><text x="830.00" y="339.83" font-size="14" text-anchor="middle">0.06%</text><text x="930.00" y="339.83" font-size="14" text-anchor="middle">0.06%</text><text x="1030.00" y="339.80" font-size="14" text-anchor="middle">0.07%</text><text x="1130.00" y="339.82" font-size="14" text-anchor="middle">0.06%</text><text x="1230.00" y="339.76" font-size="14" text-anchor="middle">0.09%</text><text x="1330.00" y="339.84" font-size="14" text-anchor="middle">0.06%</text><text x="1430.00" y="339.83" font-size="14" text-anchor="middle">0.06%</text><text x="1530.00" y="339.83" font-size="14" text-anchor="middle">0.06%</text><text x="1630.00" y="339.81" font-size="14" text-anchor="middle">0.07%</text><text x="1730.00" y="339.79" font-size="14" text-anchor="middle">0.08%</text><text x="1830.00" y="336.43" font-size="14" text-anchor="middle">1.28%</text><text x="1930.00" y="333.66" font-size="14" text-anchor="middle">2.27%</text><text x="2030.00" y="336.65" font-size="14" text-anchor="middle">1.20%</text><text x="2130.00" y="336.90" font-size="14" text-anchor="middle">1.11%</text><text x="2230.00" y="338.66" font-size="14" text-anchor="middle">0.48%</text><text x="2330.00" y="338.81" font-size="14" text-anchor="middle">0.42%</text><text x="2430.00" y="337.60" font-size="14" text-anchor="middle">0.86%</text><text x="2530.00" y="338.84" font-size="14" text-anchor="middle">0.41%</text><text x="2630.00" y="334.51" font-size="14" text-anchor="middle">1.96%</text><text x="2730.00" y="330.86" font-size="14" text-anchor="middle">3.26%</text><text x="2830.00" y="335.26" font-size="14" text-anchor="middle">1.69%</text><text x="2930.00" y="338.67" font-size="14" text-anchor="middle">0.47%</text><text x="3030.00" y="333.35" font-size="14" text-anchor="middle">2.37%</text><text x="3130.00" y="60.00" font-size="14" text-anchor="middle">100.00%</text>
</svg>
